<?xml version="1.0" encoding="UTF-8" standalone="no"?>
<!-- Created with Inkscape (http://www.inkscape.org/) -->

<svg
   xmlns:dc="http://purl.org/dc/elements/1.1/"
   xmlns:cc="http://creativecommons.org/ns#"
   xmlns:rdf="http://www.w3.org/1999/02/22-rdf-syntax-ns#"
   xmlns:svg="http://www.w3.org/2000/svg"
   xmlns="http://www.w3.org/2000/svg"
   xmlns:sodipodi="http://sodipodi.sourceforge.net/DTD/sodipodi-0.dtd"
   xmlns:inkscape="http://www.inkscape.org/namespaces/inkscape"
   version="1.1"
   id="svg5271"
   width="2048"
   height="832"
   viewBox="0 0 2048 832"
   sodipodi:docname="2019-03-06_trasa_konkurs_Makerspace_d_final.svg"
   inkscape:version="0.92.4 (unknown)">
  <metadata
     id="metadata5277">
    <rdf:RDF>
      <cc:Work
         rdf:about="">
        <dc:format>image/svg+xml</dc:format>
        <dc:type
           rdf:resource="http://purl.org/dc/dcmitype/StillImage" />
        <dc:title></dc:title>
      </cc:Work>
    </rdf:RDF>
  </metadata>
  <defs
     id="defs5275" />
  <sodipodi:namedview
     pagecolor="#ffffff"
     bordercolor="#666666"
     borderopacity="1"
     objecttolerance="10"
     gridtolerance="10"
     guidetolerance="10"
     inkscape:pageopacity="0"
     inkscape:pageshadow="2"
     inkscape:window-width="1299"
     inkscape:window-height="713"
     id="namedview5273"
     showgrid="false"
     inkscape:zoom="0.54966504"
     inkscape:cx="584.02981"
     inkscape:cy="475.38766"
     inkscape:window-x="67"
     inkscape:window-y="27"
     inkscape:window-maximized="1"
     inkscape:current-layer="svg5271" />
  <path
     style="fill:#000000;stroke-width:1.33333337"
     d="m 1480.5808,790.80697 c -9.0492,-3.5713 -18.2768,-13.6416 -21.0466,-22.9688 -2.558,-8.6136 -2.5999,-27.9099 -0.089,-40.9618 4.57,-23.755 9.7359,-38.7777 40.806,-118.6667 15.4322,-39.6798 21.4118,-59.7413 22.2564,-74.6703 0.5559,-9.8268 0.2964,-11.7629 -1.9477,-14.5343 -3.468,-4.2828 -7.9963,-3.0925 -15.8793,4.1738 -13.0592,12.0376 -28.6652,37.2353 -58.5711,94.5698 -35.9488,68.9201 -55.5935,100.8564 -73.9995,120.301 -13.6337,14.4032 -22.9093,19.4934 -35.5218,19.4934 -10.0796,0 -17.3389,-3.1698 -22.1102,-9.6544 -6.1814,-8.4009 -6.9658,-12.3518 -6.8198,-34.3456 0.1166,-17.5326 0.9625,-25.6205 5.5789,-53.3334 7.0968,-42.6025 8.6391,-55.9665 8.694,-75.3333 0.082,-28.8624 -7.8161,-47.4427 -23.6293,-55.5891 -9.6712,-4.9822 -19.4018,-0.7576 -31.3645,13.617 -10.0652,12.0945 -19.0935,28.3112 -43.2223,77.6358 -12.0228,24.5771 -24.67,49.0302 -28.1051,54.3402 -12.216,18.8841 -26.5717,30.6367 -37.4223,30.6367 -5.0958,0 -16.4719,-5.3314 -20.1945,-9.4641 -20.2066,-22.433 -31.0908,-82.8941 -31.1269,-172.9084 l -0.012,-29.7313 -37.6667,0.909 c -9.7104,0.21047 -43.8812,1.2498 -51.3176,0.93553 -50.95074,-2.15323 -21.57164,-16.13407 56.0224,-17.56753 40.5646,-0.483 43.8609,-0.3497 46.3173,1.8734 2.4747,2.2396 2.6446,4.1632 2.6446,29.9514 0,95.0447 12.5775,167.341 30.7471,176.7369 3.6098,1.8667 4.405,1.8531 8.6198,-0.1469 10.7862,-5.1184 19.2457,-18.8496 50.0391,-81.2222 13.0353,-26.4032 27.1063,-53.1059 31.2689,-59.3392 21.4043,-32.0523 41.8248,-42.0186 62.9854,-30.7401 15.0564,8.0249 24.5021,21.0303 29.9241,41.2013 2.2137,8.2352 2.7423,14.1955 2.7376,30.8721 0,22.782 -0.6099,28.1708 -8.5851,76.6667 -4.3166,26.249 -5.5088,37.0656 -5.6093,50.8945 -0.1153,15.8643 0.1428,17.9256 2.6709,21.3333 3.9028,5.2608 9.4688,5.5483 17.9586,0.9277 18.0028,-9.7984 37.5925,-38.7733 79.2078,-117.1555 38.2578,-72.0579 48.0723,-88.4686 62.0667,-103.7807 16.2931,-17.8272 31.8045,-21.3058 44.6629,-10.016 10.2584,9.007 11.8522,25.7948 4.9856,52.5169 -3.9708,15.4533 -13.8728,42.7809 -38.1497,105.2866 -26.0232,67.0017 -30.0907,99.5457 -13.6831,109.4791 3.1864,1.9291 6.6346,2.4977 14.8194,2.4434 14.6429,-0.097 23.2344,-4.2639 36.7398,-17.8191 23.9183,-24.0063 39.9743,-58.2146 72.6463,-154.7769 18.2287,-53.875 28.9971,-82.2499 39.2348,-103.3837 12.9293,-26.6903 27.6419,-44.3391 43.3791,-52.0366 7.2693,-3.5556 9.2177,-3.9069 21.3333,-3.8465 15.6409,0.078 27.7067,3.2499 43.3333,11.3919 22.6011,11.7759 44.6723,32.5039 82.9212,77.8749 25.683,30.4651 36.2898,41.4799 46.3188,48.1007 l 5.9067,3.8994 h 49.4268 c 27.1846,0 59.2289,-0.1791 71.2096,-0.3981 l 21.7828,-0.3981 -0.7766,-6.2686 c -1.7116,-13.8154 -8.9108,-81.812 -10.0513,-94.9352 -0.6693,-7.7 -2.448,-23.9 -3.9528,-36 -5.2929,-63.83602 -8.2099,-72.47752 -9.4613,-90.6667 -0.7396,-9.1666 -2.2242,-24.1666 -3.2991,-33.3333 -2.5883,-22.0735 -5.5613,-50.2822 -7.3776,-70 -0.8105,-8.8 -2.0379,-20.7454 -2.7271,-26.5453 -0.6893,-5.8 -1.2533,-13.1796 -1.2533,-16.3992 v -5.8539 l -69.7595,0.9404 -69.7594,0.9404 -7.5872,-3.4736 c -15.4579,-7.0768 -28.3211,-19.1963 -57.6062,-54.27547 -44.4316,-53.222296 -73.0308,-73.521766 -103.8254,-73.694486 -11.663,-0.0654 -17.3399,2.58463 -26.9672,12.58868 -18.039,18.744596 -29.466,43.143206 -58.905,125.772476 -18.3358,51.4651 -28.8818,77.9155 -39.6217,99.3752 -24.3389,48.6326 -49.0375,71.1344 -80.0903,72.967 -15.2849,0.902 -24.5564,-1.9712 -32.718,-10.1395 -17.6714,-17.6859 -13.9288,-50.8916 13.248,-117.536 25.8634,-63.4233 31.3238,-77.4086 35.0235,-89.7021 4.6113,-15.323 6.4609,-32.1827 4.0291,-36.72672 -3.1842,-5.94944 -10.8908,-2.81024 -21.6615,8.82346 -12.4067,13.40056 -26.6063,36.50226 -59.1741,96.27196 -30.6414,56.2338 -46.3366,80.2983 -63.9584,98.0637 -13.2874,13.3955 -24.0647,19.2842 -35.213,19.2404 -14.3801,-0.056 -23.3096,-7.2814 -26.8996,-21.7646 -2.5306,-10.2091 -0.7142,-34.1562 4.8193,-63.5395 12.094,-64.2195 12.9525,-91.7329 3.444,-110.3712 -7.4374,-14.57841 -21.1457,-21.31967 -31.9706,-15.72192 -13.1091,6.77897 -26.8496,27.42182 -54.6438,82.09312 -22.2574,43.7805 -30.8365,58.2652 -41.032,69.2776 -8.6473,9.34 -16.2249,13.3891 -25.0571,13.3891 -21.0462,0 -34.5172,-22.6875 -41.98,-70.7012 -4.0504,-26.0597 -5.4471,-45.2358 -6.3827,-87.63213 l -0.8312,-37.66667 h -26.9044 c -44.5788,0.62191 -36.115,0.36079 -73.17223,1.96561 -7.23609,0.31337 -13.41667,0.82987 -13.73457,1.14778 -0.9097,0.90969 -1.69884,52.27151 -2.38494,155.22281 -0.39937,59.929 -1.12845,95.9284 -1.9748,97.5098 -0.73792,1.3788 -2.16354,2.8223 -3.16805,3.2078 -2.81809,1.0814 -88.14713,2.7612 -91.93745,1.8099 -1.8422,-0.4624 -3.76143,-1.8959 -4.26498,-3.1855 -0.50353,-1.2897 -0.84702,-11.6346 -0.7633,-22.9886 0.0931,-41.32106 0.0722,-45.91027 -5.27003,-88.0229 -3.27768,-28.9858 -13.36679,-62.0785 -23.84089,-78.1994 -12.56068,-19.3323 -29.67016,-28.41868 -38.3198,-20.3506 -5.44958,5.0831 -9.23206,13.8691 -17.26283,40.0984 -12.88033,42.0683 -21.90047,56.1668 -38.2804,59.8325 -14.96616,3.3493 -40.15969,-4.1281 -77.01468,-22.8578 -11.38867,-5.7877 -21.28867,-10.4922 -22,-10.4543 -1.23617,0.066 -15.69215,21.8623 -44.15324,66.5739 -25.39276,39.8913 -31.59407,48.6176 -35.50223,49.9581 -2.98725,1.0246 -4.18908,0.7691 -6.27125,-1.3333 -1.41669,-1.4305 -8.32812,-19.1009 -15.35873,-39.2675 -42.5549,-122.0648 -53.22236,-152.03146 -54.00243,-151.70181 -0.98128,0.4147 -34.20084,36.87481 -45.09303,49.49181 -3.89816,4.5155 -10.38546,11.96 -14.41624,16.5433 l -7.32866,8.3333 h -17.12267 -17.12268 l -24.31689,49 c -35.09646,70.7215 -49.89796,100.2351 -53.4632,106.6034 -6.34238,11.3289 -14.24066,10.1592 -16.88022,-2.4999 -0.81464,-3.9069 -4.26544,-19.4035 -7.66842,-34.4368 -3.403,-15.0333 -9.64662,-43.5333 -13.87472,-63.3333 -13.97807,-65.4588 -36.2811,-163.98087 -37.3841,-165.14178 -0.87469,-0.92061 -20.0013,25.52691 -20.0013,27.65701 0,0.57796 -24.24464,36.82657 -28.91802,43.23587 -1.237,1.6965 -7.98648,11.5965 -14.99886,22 l -12.74979,18.9155 -21.33333,0.8195 c -11.73334,0.4506 -37.94793,0.9006 -58.254646,1 -20.306722,0.099 -37.23698,0.6913 -37.622796,1.3156 -0.738791,1.1953 -6.183846,65.2032 -6.566224,77.1874 -4.343525,40.77793 -20.269779,40.86033 -18.948455,29.59914 0.45173,-3.85 4.916124,-54.51924 6.776254,-76.43524 1.86014,-21.916 3.943001,-40.8954 4.62859,-42.1765 0.685591,-1.281 2.267824,-2.721 3.516076,-3.2 1.248252,-0.479 28.824291,-1.2462 61.280081,-1.7049 l 59.01054,-0.834 29.90392,-44.7853 c 16.44715,-24.63193 35.06374,-52.71786 41.37019,-62.41319 11.74931,-18.062956 14.42133,-20.430436 20.78049,-18.412116 1.77995,0.56493 3.26271,2.81572 4.25156,6.45372 1.86914,6.87662 19.87527,88.402186 30.68247,138.919586 4.39271,20.5333 11.79937,53.8333 16.45928,74 4.65989,20.1667 8.88328,39.2135 9.38529,42.3263 0.502,3.1129 1.40222,5.9622 2.00047,6.332 0.59825,0.3697 16.94351,-31.2771 36.32279,-70.3264 19.37928,-39.0492 36.28513,-71.8615 37.56857,-72.9162 1.81185,-1.4889 6.14159,-1.8431 19.36759,-1.5842 l 17.03405,0.3333 8.61763,-9.7491 c 4.73969,-5.3619 12.47682,-14.3311 17.19362,-19.9314 17.00366,-20.1887 47.0241,-52.50703 49.7485,-53.55648 5.15214,-1.98465 8.19178,0.9148 11.82272,11.27744 1.88758,5.38711 9.73948,27.79474 17.44865,49.79474 7.70917,22 20.07673,57.4 27.48347,78.6667 17.6192,50.5893 17.54997,50.4077 18.71357,49.1131 0.94805,-1.0547 18.6132,-28.158 54.05135,-82.9299 9.24576,-14.2899 17.1221,-25.0671 18.91789,-25.8853 2.51127,-1.1442 4.23899,-0.7409 9.39997,2.1944 11.9151,6.7767 44.98711,23.1206 54.3232,26.8461 11.74848,4.6882 26.58878,8.6105 32.66667,8.6337 11.59823,0.044 18.67241,-11.0463 30.05404,-47.1181 11.04539,-35.0062 17.54897,-47.49814 27.88091,-53.55306 18.94012,-11.09965 47.25377,6.11177 63.76614,38.76246 8.31543,16.4424 17.34614,50.6928 21.07664,79.9366 0.84195,6.6 1.8375,14.3872 2.21234,17.305 1.3161,20.87418 0.57746,8.36312 1.11657,27.5129 0.21865,28.37665 0.56686,23.31556 0.55963,35.2193 v 14.3636 l 34.3151,-0.9599 c 18.87331,-0.528 34.52112,-1.166 34.77291,-1.4178 0.2518,-0.2518 0.86,-56.8939 1.35157,-125.8713 0.87688,-123.04687 0.94407,-125.46271 3.56042,-128.02699 2.49736,-2.447656 5.8628,-2.703896 53.00596,-4.035876 75.1021,-2.12194 88.079,-1.97672 90.7874,1.01603 1.9533,2.15845 2.2066,7.180146 2.2066,43.750156 0,72.48938 7.0599,121.51388 20.3531,141.33418 7.9449,11.8459 16.0646,10.8109 27.1473,-3.4604 9.3924,-12.0948 13.7323,-19.7459 37.0939,-65.3956 11.8217,-23.1 25.0292,-47.3521 29.3501,-53.8936 9.8002,-14.83665 21.9344,-27.32629 31.0113,-31.91974 22.8866,-11.58198 50.6905,5.34559 59.2029,36.04384 5.2157,18.8094 4.5664,42.2983 -2.2415,81.0956 -9.1046,51.8858 -9.9163,57.6741 -9.8974,70.578 0.012,8.096 0.685,14.7442 1.695,16.7404 2.5217,4.984 7.6027,6.2363 14.5147,3.5772 19.2372,-7.4006 42.1802,-39.5761 85.7249,-120.2217 42.2287,-78.20824 62.3999,-103.28414 83.112,-103.32082 8.1623,-0.0145 13.2045,2.21419 18.0571,7.98101 12.5593,14.92593 7.3354,39.86741 -24.4624,116.79831 -25.484,61.655 -33.7211,87.7924 -33.7866,107.2082 -0.063,18.7068 5.0399,24.1481 22.6463,24.1481 8.2955,0 11.4723,-0.6734 18.3421,-3.8882 18.1964,-8.5151 34.6192,-28.9668 52.1362,-64.9266 11.5044,-23.617 17.3476,-38.316 34.5093,-86.8109 7.0351,-19.8793 15.7307,-43.8793 19.3236,-53.3333 22.0832,-58.10775 39.8961,-85.661046 62.6017,-96.833136 8.3174,-4.09248 9.661,-4.34631 22.2098,-4.19591 36.5796,0.43839 70.745,23.68603 117.3352,79.839916 20.5869,24.81303 40.033,43.91093 48.7113,47.83913 l 7.3101,3.3089 71.2332,-1.3267 c 39.1783,-0.7297 72.611,-0.9809 74.2948,-0.5583 1.684,0.4227 3.7838,2.1114 4.6663,3.7527 1.6232,3.0188 4.8529,29.3113 8.392,68.3176 1.0647,11.7333 2.5897,28.5333 3.3891,37.3333 0.7994,8.8 2.5965,24.1 3.9936,34 1.397,9.9 3.21,25.5 4.0286,34.6667 0.8188,9.1667 2.0584,20.5667 2.7548,25.3333 0.6966,4.7667 1.8568,16.5404 2.5786,26.1638 0.7216,9.6234 2.5152,26.7234 3.9857,38 2.3513,18.0329 9.4278,62.58496 9.4322,118.58166 l 1.608,27.00328 -82.6951,2.24126 c -46.4579,0 -76.1712,-0.5179 -79.2343,-1.3686 -14.07,-3.9079 -30.7803,-19.6496 -67.1844,-63.2906 -40.9379,-49.0759 -58.7255,-64.3995 -85.248,-73.4395 -15.3105,-5.2184 -29.5805,-5.3161 -38.1789,-0.2614 -11.2948,6.6398 -21.1662,19.7369 -33.6476,44.6431 -7.2686,14.5039 -13.6988,31.3423 -30.6998,80.3911 -29.7868,85.9373 -32.2914,92.755 -44.0842,120 -16.6671,38.506 -39.1739,67.1504 -61.3887,78.1296 -10.092,4.9877 -11.1296,5.2152 -25.2625,5.5374 -12.2626,0.2795 -15.904,-0.1242 -21.6784,-2.403 z m -1191.3892,-0.93 c -1.14178,-1.2833 -3.3932,-8.9333 -5.00314,-17 -1.60995,-8.0667 -8.60832,-41.0667 -15.55196,-73.3333 -6.94363,-32.2667 -15.52114,-72.4667 -19.06112,-89.3334 -3.53999,-16.8666 -7.0933,-33.1043 -7.89622,-36.0836 -0.80293,-2.9793 -3.5456,-16.1236 -6.09482,-29.2095 -6.33327,-32.5105 -10.17251,-48.7069 -11.54563,-48.7069 -1.50001,0 -35.0482,50.2604 -52.95351,79.3325 -7.6784,12.4671 -16.84596,26.9525 -20.37233,32.1898 l -6.41159,9.5222 -21.7235,0.7771 c -51.550425,1.8443 -110.349207,2.2942 -113.0200066,0.8648 -2.40595,-1.2876 -2.7035,-2.7574 -2.7035,-13.3541 0,-6.549 0.87862,-18.3779 1.95249,-26.2864 1.07388,-7.9086 2.5820696,-21.8792 3.3515396,-31.0459 0.76947,-9.1666 1.67809,-19.0666 2.01914,-22 0.34106,-2.9333 1.21559,-14.3333 1.9434,-25.3333 0.72782,-11 3.41774,-41.6 5.97762,-68 2.55988,-26.4 4.99122,-52.8 5.40299,-58.6667 0.41177,-5.8666 1.31986,-17.8666 2.018,-26.6666 0.69813,-8.8 1.43406,-19.1499 1.6354,-22.9998 2.297085,-29.76193 19.136369,-42.34946 15.510014,5.9998 -1.22398,17.6873 -2.849196,36.8068 -4.561816,53.6666 l -0.88036,8.6667 c -4.784446,53.41094 -1.417621,17.7376 -4.477778,58 -0.30532,4.0333 -0.81438,10.3333 -1.13124,14 -0.31687,3.6667 -0.94262,11.7667 -1.39055,18 -1.46782,20.4259 -1.90952,25.5415 -5.87132,68 -2.15546,23.1 -3.95951,44.3457 -4.009,47.2126 l -0.09,5.2127 32.967393,-0.8765 c 18.132065,-0.482 43.343324,-0.8777 56.025014,-0.8792 h 23.05761 l 4.94239,-8.1526 c 2.71832,-4.484 9.2352,-14.534 14.48197,-22.3334 10.00937,-14.8791 25.73281,-38.9107 50.27975,-76.8474 8.06657,-12.4666 15.86176,-24.0166 17.32265,-25.6666 2.96841,-3.3527 9.03841,-3.9958 11.35605,-1.2032 1.23948,1.4935 11.79226,48.8398 17.57886,78.8698 0.84785,4.4 4.1497,19.7 7.33745,34 3.18775,14.3 7.6616,34.7 9.94189,45.3334 2.2803,10.6333 8.54462,39.7333 13.92071,64.6666 5.37611,24.9334 10.53723,49.7003 11.46916,55.0377 0.93195,5.3374 2.26384,9.5146 2.95979,9.2826 0.69594,-0.232 9.60026,-18.699 19.78737,-41.0377 22.75691,-49.9023 52.219,-109.3389 55.80832,-112.5872 2.31943,-2.099 4.9406,-2.3769 20.34708,-2.1568 12.81332,0.183 18.27753,-0.2236 19.83697,-1.4763 1.18378,-0.9509 12.88378,-14.2343 26,-29.5186 44.04024,-51.32 48.44978,-56.2053 51.89244,-57.4925 2.27659,-0.8511 4.18998,-0.8096 5.69228,0.1236 2.01672,1.2527 18.88194,50.1114 61.50043,178.1671 4.57771,13.7546 8.82328,24.6993 9.4346,24.3215 0.61132,-0.3778 7.29311,-10.7316 14.84841,-23.0085 13.00647,-21.1345 22.73214,-36.5045 47.45024,-74.9882 5.88778,-9.1666 12.17834,-17.5138 13.97903,-18.5492 3.07717,-1.7695 4.22905,-1.3419 19.16212,7.1122 33.31681,18.8619 61.75572,30.6584 77.82357,32.2814 15.98331,1.6144 21.29392,-6.8382 37.38946,-59.511 11.00714,-36.021 23.46806,-51.4542 41.3315,-51.1902 13.26566,0.1961 28.737,9.9301 39.98664,25.1582 23.17194,31.3667 36.01787,95.2115 36.02224,179.032 l 10e-4,26.9999 23,-0.01 c 12.65,0 28.7617,-0.3885 35.80378,-0.8549 l 12.80377,-0.8479 0.85603,-64.8118 c 0.47081,-35.6465 1.24869,-96.206 1.72864,-134.5766 0.766,-61.2412 1.13336,-70.0628 3.00686,-72.204 2.32463,-2.6567 14.669,-3.9435 38.38313,-4.0014 2.6014,-0.0566 32.729,-0.39335 35.0665,-0.37086 46.3346,0.44585 13.2299,16.01269 -41.6668,16.96646 l -17.98541,0.9633 -0.99536,135.3693 c -0.93436,127.0733 -1.14031,135.5143 -3.36056,137.7346 -2.81458,2.8146 -12.92211,3.5383 -64.02875,4.5846 -29.34421,0.6007 -34.46221,0.4118 -37,-1.3657 -2.91725,-2.0434 -2.94476,-2.4081 -2.94476,-39.0538 0,-64.9562 -4.65349,-104.3566 -16.68881,-141.3015 -7.91562,-24.2986 -19.93278,-41.7464 -33.16454,-48.1518 -15.87137,-7.6832 -23.40921,1.3024 -36.68064,43.7259 -12.97385,41.4722 -20.16158,54.6796 -33.46601,61.4935 -10.28448,5.2672 -24.51327,4.2085 -46.01168,-3.4236 -10.98803,-3.9008 -42.10416,-18.7724 -53.71367,-25.6719 -3.88226,-2.3072 -7.78226,-4.1896 -8.66666,-4.1832 -0.88439,0.01 -4.67612,4.9564 -8.42604,11 -10.6513,17.1661 -66.5808,105.0761 -70.40019,110.655 -3.88483,5.6745 -8.28559,6.5649 -12.02485,2.433 -2.17779,-2.4064 -31.89459,-89.8351 -57.58988,-169.433 -6.27335,-19.4333 -11.7082,-35.6333 -12.07746,-36 -0.36925,-0.3667 -2.56546,1.5084 -4.88046,4.1669 -2.31502,2.6585 -13.20911,15.1702 -24.20911,27.8037 -11,12.6336 -24.09351,27.8585 -29.09667,33.8331 -5.00317,5.9746 -10.06785,11.613 -11.25484,12.5296 -1.47957,1.1426 -7.7633,1.6667 -19.9843,1.6667 h -17.82614 l -16.74657,34.3333 c -9.21061,18.8834 -23.3274,47.8334 -31.37065,64.3334 -8.04324,16.5 -19.13744,39.9 -24.65376,52 -10.53494,23.1082 -12.7234,26.6666 -16.4004,26.6666 -1.23935,0 -3.18755,-1.05 -4.32934,-2.3333 z M 39.120938,411.94367 c -26.080625,280.03755 -13.040313,140.01878 0,0 z"
     id="path5824"
     inkscape:connector-curvature="0"
     sodipodi:nodetypes="cccccccccsccccccccsccccsccsccscccccsccccccscccscccccscscccccccccsccccccccccscccccccccccscscsccccsscccccccssccsccsccccccssccscscsccccccscsscsccssscccccccccssscscsccssccccccccssscsccccssscccsccccscccccscccscccscccccccccccccccccccccsccsssccccssscssccccscccssccccccscccsscsccscccsccsscccccscscccccssccsccscccsssscccccccscccscsccscscccc" />
</svg>
